#!OML:ASF Y:\EmotionMaleHayes\Project 1\Capture day 1\Session 1\Male1.ASF
:FULLY-SPECIFIED
:DEGREES
1418
root 42.0214 16.702 9.60451 3.40481 -61.5627 -11.5196
lowerback 11.1983 3.75903 6.28355
upperback 1.50404 5.72004 0.200412
thorax -4.08511 2.72251 -4.11097
lowerneck -17.0972 -9.09647 -7.31748
upperneck 21.7902 -12.8148 7.54418
head 10.823 -5.67922 1.96884
rclavicle -1.00498e-013 7.95139e-016
rhumerus -26.9702 11.122 -89.7944
rradius 45.5252
rwrist -2.56165
rhand -8.59066 -32.1564
rfingers 7.12502
rthumb 17.3404 -61.4028
lclavicle -1.00498e-013 7.95139e-016
lhumerus -48.8275 9.45895 71.4824
lradius 24.8827
lwrist -9.65523
lhand -12.2398 -21.9586
lfingers 7.12502
lthumb 13.8259 7.56196
rfemur 28.4366 5.30148 28.3227
rtibia 10.5539
rfoot -15.2465 16.9254
rtoes 24.3213
lfemur -11.0938 -5.73732 -4.30933
ltibia 6.77965
lfoot -1.25149 6.0381
ltoes -10.2539
1419
root 41.9292 16.711 9.70755 3.15886 -62.0716 -10.987
lowerback 10.9412 3.83638 5.81187
upperback 1.37422 5.74658 -0.0590841
thorax -4.09577 2.74094 -4.10893
lowerneck -17.0283 -9.06414 -7.08616
upperneck 21.9072 -12.8871 7.64936
head 10.8509 -5.68424 1.95955
rclavicle -4.46147e-014 -7.95139e-016
rhumerus -27.5111 10.8732 -90.1591
rradius 45.2911
rwrist -2.22001
rhand -8.46499 -32.0534
rfingers 7.12502
rthumb 17.4614 -61.2891
lclavicle -4.46147e-014 -7.95139e-016
lhumerus -48.5298 9.0691 71.446
lradius 24.8143
lwrist -9.53259
lhand -12.1183 -21.6131
lfingers 7.12502
lthumb 13.943 7.89942
rfemur 28.3937 5.72458 27.961
rtibia 11.3885
rfoot -15.7933 16.1914
rtoes 17.0155
lfemur -11.1274 -5.31743 -4.70019
ltibia 7.65827
lfoot -1.23694 6.14917
ltoes -9.54928
1420
root 41.8354 16.7212 9.81128 2.82182 -62.4993 -10.3837
lowerback 10.6048 3.88972 5.25809
upperback 1.32617 5.72829 -0.246222
thorax -3.99666 2.74403 -3.96896
lowerneck -17.1275 -9.06241 -6.95527
upperneck 22.13 -12.9537 7.67921
head 10.9507 -5.69427 1.93276
rclavicle 6.59468e-014 1.23246e-014
rhumerus -27.915 10.8079 -90.4002
rradius 44.9276
rwrist -2.20773
rhand -8.43858 -31.8193
rfingers 7.12502
rthumb 17.4868 -61.0528
lclavicle 6.59468e-014 1.23246e-014
lhumerus -48.0463 9.24365 71.2213
lradius 24.5024
lwrist -10.0807
lhand -12.1688 -21.4646
lfingers 7.12502
lthumb 13.8943 8.05124
rfemur 28.6327 6.74126 28.1178
rtibia 11.7128
rfoot -15.5093 14.9167
rtoes 13.4747
lfemur -11.1084 -4.89361 -5.13413
ltibia 8.51422
lfoot -1.60458 6.37898
ltoes -9.00032
1421
root 41.7424 16.729 9.92239 2.04965 -62.7983 -9.20802
lowerback 10.1295 3.8779 4.50131
upperback 1.29699 5.59744 -0.450371
thorax -3.82898 2.69652 -3.70826
lowerneck -17.3697 -9.02644 -6.9745
upperneck 22.4794 -12.9297 7.69357
head 11.1275 -5.66872 1.93274
rclavicle 6.5102e-015 -5.56597e-015
rhumerus -28.2858 10.7648 -90.5178
rradius 44.6474
rwrist -2.62218
rhand -8.2938 -31.9178
rfingers 7.12502
rthumb 17.6261 -61.1388
lclavicle 6.5102e-015 -5.56597e-015
lhumerus -47.651 9.5869 71.0134
lradius 24.2448
lwrist -10.8145
lhand -12.3924 -21.7957
lfingers 7.12502
lthumb 13.6789 7.73477
rfemur 28.2573 6.4733 26.7631
rtibia 12.5825
rfoot -14.5943 15.6352
rtoes 13.9691
lfemur -11.1391 -4.34269 -5.98663
ltibia 9.16531
lfoot -1.67175 6.30758
ltoes -9.47289
1422
root 41.6534 16.7374 10.0371 0.917888 -62.8893 -7.57985
lowerback 9.75735 3.77754 3.72373
upperback 1.15568 5.35688 -0.783069
thorax -3.83151 2.58658 -3.57194
lowerneck -17.3903 -9.03962 -6.98388
upperneck 22.6335 -12.9778 7.73132
head 11.1969 -5.68465 1.93735
rclavicle 1.24862e-013 7.95139e-015
rhumerus -28.8967 10.5946 -90.764
rradius 44.4951
rwrist -2.82962
rhand -8.17448 -32.3538
rfingers 7.12502
rthumb 17.741 -61.5645
lclavicle 1.24862e-013 7.95139e-015
lhumerus -47.4595 9.20771 71.147
lradius 24.364
lwrist -10.6124
lhand -12.3838 -21.815
lfingers 7.12502
lthumb 13.6871 7.71492
rfemur 27.9774 6.54928 25.6245
rtibia 13.2901
rfoot -13.8757 15.814
rtoes 14.3787
lfemur -11.2877 -4.01723 -7.17076
ltibia 9.77063
lfoot -1.44497 6.17541
ltoes -8.36796
1423
root 41.5627 16.7509 10.1424 0.318807 -63.1789 -6.71687
lowerback 9.65331 3.73095 3.1793
upperback 0.978036 5.22986 -0.990421
thorax -3.99918 2.52459 -3.47144
lowerneck -17.1858 -9.05691 -6.81326
upperneck 22.5867 -13.0141 7.56091
head 11.1166 -5.71686 1.85233
rclavicle 8.84095e-014 -9.54166e-015
rhumerus -29.7015 10.564 -91.0743
rradius 44.1981
rwrist -2.4315
rhand -8.54167 -32.4355
rfingers 7.12502
rthumb 17.3876 -61.6778
lclavicle 8.84095e-014 -9.54166e-015
lhumerus -47.3172 8.88767 71.2135
lradius 24.5157
lwrist -10.3372
lhand -12.0006 -21.8358
lfingers 7.12502
lthumb 14.0564 7.6689
rfemur 27.8743 7.20478 25.3488
rtibia 13.9956
rfoot -13.1311 15.4999
rtoes 15.3901
lfemur -11.0873 -3.55135 -7.80576
ltibia 10.1528
lfoot -1.25479 6.12573
ltoes -7.47956
1424
root 41.4517 16.753 10.2692 -1.01255 -62.7529 -4.99724
lowerback 9.07882 3.51125 2.40274
upperback 0.889672 4.83274 -1.30546
thorax -3.83967 2.34229 -3.28114
lowerneck -16.9984 -9.10937 -6.71046
upperneck 22.6655 -13.126 7.49384
head 11.106 -5.77405 1.80042
rclavicle -2.53823e-014 2.38542e-015
rhumerus -30.475 10.5633 -91.3316
rradius 43.7187
rwrist -1.94704
rhand -9.0292 -32.1338
rfingers 7.12502
rthumb 16.9183 -61.4169
lclavicle -2.53823e-014 2.38542e-015
lhumerus -47.0673 8.93863 71.0296
lradius 24.4364
lwrist -10.8928
lhand -11.9424 -22.1702
lfingers 7.12502
lthumb 14.1125 7.33052
rfemur 28.1004 7.05263 24.4206
rtibia 14.2086
rfoot -12.063 15.2081
rtoes 17.1507
lfemur -11.0249 -2.98511 -9.15188
ltibia 10.4993
lfoot -0.833404 5.32192
ltoes -9.69776
1425
root 41.3662 16.7835 10.3418 -0.584006 -63.6692 -5.89667
lowerback 9.66099 3.74498 2.248
upperback 0.881388 5.14254 -1.15677
thorax -4.17779 2.48977 -3.12284
lowerneck -16.9913 -9.14219 -6.68809
upperneck 22.7353 -13.2259 7.61207
head 11.1471 -5.80385 1.82143
rclavicle 2.48481e-017 -4.77083e-015
rhumerus -30.94 10.5017 -91.3985
rradius 43.1924
rwrist -1.64786
rhand -9.26708 -32.0276
rfingers 7.12502
rthumb 16.6893 -61.3302
lclavicle 2.48481e-017 -4.77083e-015
lhumerus -46.5689 8.53832 71.3267
lradius 24.4786
lwrist -11.06
lhand -12.326 -21.9496
lfingers 7.12502
lthumb 13.7428 7.57651
rfemur 28.2749 8.60171 25.7169
rtibia 15.3704
rfoot -11.3652 13.7336
rtoes 18.2059
lfemur -9.96264 -2.0807 -8.39449
ltibia 10.5264
lfoot -0.837733 5.51304
ltoes -11.0567
1426
root 41.2685 16.7917 10.4576 -1.89818 -63.5068 -4.36743
lowerback 8.8893 3.62297 1.15367
upperback 1.16849 4.85737 -1.13066
thorax -3.56184 2.37904 -2.38215
lowerneck -17.0764 -9.1185 -6.83519
upperneck 22.5959 -13.13 7.62972
head 11.1159 -5.76918 1.86446
rclavicle -1.24489e-013 7.95139e-015
rhumerus -31.1856 10.378 -91.0206
rradius 42.8643
rwrist -1.27913
rhand -9.19308 -31.9692
rfingers 7.12502
rthumb 16.7606 -61.2657
lclavicle -1.24489e-013 7.95139e-015
lhumerus -45.882 8.56361 71.951
lradius 24.6047
lwrist -10.9482
lhand -12.5249 -21.5488
lfingers 7.12502
lthumb 13.5511 7.99025
rfemur 28.1268 8.5107 24.739
rtibia 16.3625
rfoot -10.4971 13.3253
rtoes 20.4697
lfemur -9.6308 -1.87799 -9.5154
ltibia 10.7632
lfoot -1.04461 5.21512
ltoes -10.845
